<svg width="959" height="154" viewBox="0 0 959 154" fill="none" xmlns="http://www.w3.org/2000/svg">
<g clip-path="url(#clip0_135_18)">
<path d="M1.08 136.26H14.73V142.65H1.08V136.26ZM16.631 129H38.441V130.77H27.191V138.54H32.711V140.34H27.191V148.2H38.441V150H16.631V129ZM45.3319 139.41L40.1119 129H50.6119L54.8119 137.34L59.3719 129H61.7119L55.8919 139.56L61.1119 150H50.6119L46.4419 141.63L41.8219 150H39.5119L45.3319 139.41ZM62.9787 129H82.0287C83.7887 129 85.2087 129.51 86.2887 130.53C87.3687 131.53 87.9087 132.89 87.9087 134.61C87.9087 135.63 87.6587 136.58 87.1587 137.46C86.6587 138.34 85.9687 139.04 85.0887 139.56C84.2087 140.08 83.2087 140.34 82.0887 140.34L72.9387 140.37V150H62.9787V129ZM73.9887 138.63C74.7087 138.63 75.3687 138.46 75.9687 138.12C76.5887 137.76 77.0687 137.28 77.4087 136.68C77.7687 136.06 77.9487 135.4 77.9487 134.7C77.9487 133.98 77.7687 133.32 77.4087 132.72C77.0687 132.1 76.5887 131.61 75.9687 131.25C75.3687 130.89 74.7087 130.71 73.9887 130.71H72.9387V138.63H73.9887ZM89.3752 129H99.9052V148.2H111.305V150H89.3752V129ZM122.575 150.15C119.895 150.15 117.475 149.74 115.315 148.92C113.155 148.1 111.445 146.89 110.185 145.29C108.945 143.67 108.325 141.73 108.325 139.47C108.325 137.23 108.955 135.31 110.215 133.71C111.475 132.11 113.175 130.9 115.315 130.08C117.475 129.24 119.895 128.82 122.575 128.82C125.235 128.82 127.635 129.24 129.775 130.08C131.935 130.9 133.635 132.11 134.875 133.71C136.135 135.31 136.765 137.23 136.765 139.47C136.765 141.73 136.135 143.67 134.875 145.29C133.635 146.89 131.935 148.1 129.775 148.92C127.635 149.74 125.235 150.15 122.575 150.15ZM122.575 148.38C123.415 148.38 124.035 148 124.435 147.24C124.775 146.66 125.005 145.63 125.125 144.15C125.185 143.37 125.215 141.81 125.215 139.47C125.215 137.11 125.165 135.44 125.065 134.46C125.005 133.26 124.785 132.35 124.405 131.73C124.005 130.97 123.395 130.59 122.575 130.59C121.735 130.59 121.105 130.97 120.685 131.73C120.345 132.33 120.125 133.24 120.025 134.46C119.945 135.5 119.905 137.17 119.905 139.47C119.905 142.07 119.935 143.63 119.995 144.15C120.075 145.53 120.295 146.56 120.655 147.24C121.075 148 121.715 148.38 122.575 148.38ZM138.242 129H158.312C159.292 129 160.192 129.25 161.012 129.75C161.852 130.23 162.512 130.89 162.992 131.73C163.492 132.55 163.742 133.45 163.742 134.43C163.742 135.73 163.342 136.91 162.542 137.97C161.742 139.03 160.732 139.71 159.512 140.01C160.592 140.31 161.472 140.88 162.152 141.72C162.852 142.56 163.202 143.51 163.202 144.57V150H153.152V143.49C153.152 142.85 153.032 142.35 152.792 141.99C152.512 141.57 152.192 141.26 151.832 141.06C151.432 140.84 150.982 140.68 150.482 140.58C149.962 140.48 149.472 140.42 149.012 140.4L148.202 140.37V150H138.242V129ZM149.252 138.63C149.972 138.63 150.632 138.46 151.232 138.12C151.852 137.76 152.332 137.28 152.672 136.68C153.032 136.06 153.212 135.4 153.212 134.7C153.212 133.98 153.032 133.32 152.672 132.72C152.332 132.1 151.852 131.61 151.232 131.25C150.632 130.89 149.972 130.71 149.252 130.71H148.202V138.66L149.252 138.63ZM165.254 129H187.064V130.77H175.814V138.54H181.334V140.34H175.814V148.2H187.064V150H165.254V129ZM209.262 130.77H201.372V129H227.682V130.77H219.762V150H209.262V130.77ZM229.151 129H239.351V138.39H245.981V129H256.181V150H245.981V140.4H239.351V150H229.151V129ZM257.861 129H279.671V130.77H268.421V138.54H273.941V140.34H268.421V148.2H279.671V150H257.861V129ZM293.68 129H303.88L310.9 144.87L316.81 129H321.31L328.21 144.51L333.97 129H336.28L328.36 150H319.27L314.92 140.16L311.2 150H302.98L293.68 129ZM348.747 150.15C346.067 150.15 343.647 149.74 341.487 148.92C339.327 148.1 337.617 146.89 336.357 145.29C335.117 143.67 334.497 141.73 334.497 139.47C334.497 137.23 335.127 135.31 336.387 133.71C337.647 132.11 339.347 130.9 341.487 130.08C343.647 129.24 346.067 128.82 348.747 128.82C351.407 128.82 353.807 129.24 355.947 130.08C358.107 130.9 359.807 132.11 361.047 133.71C362.307 135.31 362.937 137.23 362.937 139.47C362.937 141.73 362.307 143.67 361.047 145.29C359.807 146.89 358.107 148.1 355.947 148.92C353.807 149.74 351.407 150.15 348.747 150.15ZM348.747 148.38C349.587 148.38 350.207 148 350.607 147.24C350.947 146.66 351.177 145.63 351.297 144.15C351.357 143.37 351.387 141.81 351.387 139.47C351.387 137.11 351.337 135.44 351.237 134.46C351.177 133.26 350.957 132.35 350.577 131.73C350.177 130.97 349.567 130.59 348.747 130.59C347.907 130.59 347.277 130.97 346.857 131.73C346.517 132.33 346.297 133.24 346.197 134.46C346.117 135.5 346.077 137.17 346.077 139.47C346.077 142.07 346.107 143.63 346.167 144.15C346.247 145.53 346.467 146.56 346.827 147.24C347.247 148 347.887 148.38 348.747 148.38ZM364.414 129H384.484C385.464 129 386.364 129.25 387.184 129.75C388.024 130.23 388.684 130.89 389.164 131.73C389.664 132.55 389.914 133.45 389.914 134.43C389.914 135.73 389.514 136.91 388.714 137.97C387.914 139.03 386.904 139.71 385.684 140.01C386.764 140.31 387.644 140.88 388.324 141.72C389.024 142.56 389.374 143.51 389.374 144.57V150H379.324V143.49C379.324 142.85 379.204 142.35 378.964 141.99C378.684 141.57 378.364 141.26 378.004 141.06C377.604 140.84 377.154 140.68 376.654 140.58C376.134 140.48 375.644 140.42 375.184 140.4L374.374 140.37V150H364.414V129ZM375.424 138.63C376.144 138.63 376.804 138.46 377.404 138.12C378.024 137.76 378.504 137.28 378.844 136.68C379.204 136.06 379.384 135.4 379.384 134.7C379.384 133.98 379.204 133.32 378.844 132.72C378.504 132.1 378.024 131.61 377.404 131.25C376.804 130.89 376.144 130.71 375.424 130.71H374.374V138.66L375.424 138.63ZM391.426 129H401.956V148.2H413.356V150H391.426V129ZM415.069 129H430.849C433.709 129 436.179 130.02 438.259 132.06C440.319 134.12 441.349 136.59 441.349 139.47C441.349 142.39 440.319 144.88 438.259 146.94C436.199 148.98 433.729 150 430.849 150H415.069V129ZM427.369 148.26C428.509 148.26 429.329 147.89 429.829 147.15C430.309 146.43 430.609 145.41 430.729 144.09C430.829 143.23 430.879 141.69 430.879 139.47C430.879 137.75 430.819 136.11 430.699 134.55C430.579 133.37 430.279 132.47 429.799 131.85C429.299 131.11 428.489 130.74 427.369 130.74H425.569V148.26H427.369ZM441.963 144.18H447.903L446.253 153.36H441.963V144.18ZM476.452 150.15C473.772 150.15 471.352 149.74 469.192 148.92C467.032 148.1 465.322 146.89 464.062 145.29C462.822 143.67 462.202 141.73 462.202 139.47C462.202 137.23 462.832 135.31 464.092 133.71C465.352 132.11 467.052 130.9 469.192 130.08C471.352 129.24 473.772 128.82 476.452 128.82C479.112 128.82 481.512 129.24 483.652 130.08C485.812 130.9 487.512 132.11 488.752 133.71C490.012 135.31 490.642 137.23 490.642 139.47C490.642 141.73 490.012 143.67 488.752 145.29C487.512 146.89 485.812 148.1 483.652 148.92C481.512 149.74 479.112 150.15 476.452 150.15ZM476.452 148.38C477.292 148.38 477.912 148 478.312 147.24C478.652 146.66 478.882 145.63 479.002 144.15C479.062 143.37 479.092 141.81 479.092 139.47C479.092 137.11 479.042 135.44 478.942 134.46C478.882 133.26 478.662 132.35 478.282 131.73C477.882 130.97 477.272 130.59 476.452 130.59C475.612 130.59 474.982 130.97 474.562 131.73C474.222 132.33 474.002 133.24 473.902 134.46C473.822 135.5 473.782 137.17 473.782 139.47C473.782 142.07 473.812 143.63 473.872 144.15C473.952 145.53 474.172 146.56 474.532 147.24C474.952 148 475.592 148.38 476.452 148.38ZM492.119 129H500.939L509.699 139.5V129H511.499V150H504.449L493.949 136.02V150H492.119V129ZM513.184 129H534.994V130.77H523.744V138.54H529.264V140.34H523.744V148.2H534.994V150H513.184V129ZM549.002 129H559.202L566.222 144.87L572.132 129H576.632L583.532 144.51L589.292 129H591.602L583.682 150H574.592L570.242 140.16L566.522 150H558.302L549.002 129ZM604.069 150.15C601.389 150.15 598.969 149.74 596.809 148.92C594.649 148.1 592.939 146.89 591.679 145.29C590.439 143.67 589.819 141.73 589.819 139.47C589.819 137.23 590.449 135.31 591.709 133.71C592.969 132.11 594.669 130.9 596.809 130.08C598.969 129.24 601.389 128.82 604.069 128.82C606.729 128.82 609.129 129.24 611.269 130.08C613.429 130.9 615.129 132.11 616.369 133.71C617.629 135.31 618.259 137.23 618.259 139.47C618.259 141.73 617.629 143.67 616.369 145.29C615.129 146.89 613.429 148.1 611.269 148.92C609.129 149.74 606.729 150.15 604.069 150.15ZM604.069 148.38C604.909 148.38 605.529 148 605.929 147.24C606.269 146.66 606.499 145.63 606.619 144.15C606.679 143.37 606.709 141.81 606.709 139.47C606.709 137.11 606.659 135.44 606.559 134.46C606.499 133.26 606.279 132.35 605.899 131.73C605.499 130.97 604.889 130.59 604.069 130.59C603.229 130.59 602.599 130.97 602.179 131.73C601.839 132.33 601.619 133.24 601.519 134.46C601.439 135.5 601.399 137.17 601.399 139.47C601.399 142.07 601.429 143.63 601.489 144.15C601.569 145.53 601.789 146.56 602.149 147.24C602.569 148 603.209 148.38 604.069 148.38ZM619.736 129H639.806C640.786 129 641.686 129.25 642.506 129.75C643.346 130.23 644.006 130.89 644.486 131.73C644.986 132.55 645.236 133.45 645.236 134.43C645.236 135.73 644.836 136.91 644.036 137.97C643.236 139.03 642.226 139.71 641.006 140.01C642.086 140.31 642.966 140.88 643.646 141.72C644.346 142.56 644.696 143.51 644.696 144.57V150H634.646V143.49C634.646 142.85 634.526 142.35 634.286 141.99C634.006 141.57 633.686 141.26 633.326 141.06C632.926 140.84 632.476 140.68 631.976 140.58C631.456 140.48 630.966 140.42 630.506 140.4L629.696 140.37V150H619.736V129ZM630.746 138.63C631.466 138.63 632.126 138.46 632.726 138.12C633.346 137.76 633.826 137.28 634.166 136.68C634.526 136.06 634.706 135.4 634.706 134.7C634.706 133.98 634.526 133.32 634.166 132.72C633.826 132.1 633.346 131.61 632.726 131.25C632.126 130.89 631.466 130.71 630.746 130.71H629.696V138.66L630.746 138.63ZM646.748 129H662.528C665.388 129 667.858 130.02 669.938 132.06C671.998 134.12 673.028 136.59 673.028 139.47C673.028 142.39 671.998 144.88 669.938 146.94C667.878 148.98 665.408 150 662.528 150H646.748V129ZM659.048 148.26C660.188 148.26 661.008 147.89 661.508 147.15C661.988 146.43 662.288 145.41 662.408 144.09C662.508 143.23 662.558 141.69 662.558 139.47C662.558 137.75 662.498 136.11 662.378 134.55C662.258 133.37 661.958 132.47 661.478 131.85C660.978 131.11 660.168 130.74 659.048 130.74H657.248V148.26H659.048ZM694.915 129H703.675L712.975 150H701.635L698.485 143.04H691.885L689.185 150H686.995L694.915 129ZM697.645 141.21L694.915 135.12L692.545 141.21H697.645ZM715.219 130.77H707.329V129H733.639V130.77H725.719V150H715.219V130.77ZM755.53 129H764.29L773.59 150H762.25L759.1 143.04H752.5L749.8 150H747.61L755.53 129ZM758.26 141.21L755.53 135.12L753.16 141.21H758.26ZM795.463 130.77H787.573V129H813.883V130.77H805.963V150H795.463V130.77ZM815.352 129H825.132V150H815.352V129ZM828.606 136.02V150H826.836V129H835.596L839.976 137.76L843.456 129H853.056V150H843.456V134.25L837.336 150H834.726L828.606 136.02ZM854.756 129H876.566V130.77H865.316V138.54H870.836V140.34H865.316V148.2H876.566V150H854.756V129ZM878.281 144.18H884.221V150H878.281V144.18Z" fill="#BE2F2F"/>
<path d="M4.79781 15H98.1778C102.938 15 107.278 16.1667 111.198 18.5C115.211 20.74 118.384 23.8667 120.718 27.88C123.051 31.8 124.218 36.14 124.218 40.9C124.218 45.4733 123.098 49.8133 120.858 53.92C118.618 58.0267 115.631 61.34 111.898 63.86C115.631 66.4733 118.618 69.88 120.858 74.08C123.098 78.1867 124.218 82.5267 124.218 87.1C124.218 91.7667 123.051 96.1067 120.718 100.12C118.384 104.04 115.211 107.167 111.198 109.5C107.278 111.833 102.938 113 98.1778 113H4.79781V15ZM56.0378 59.94C59.3978 59.94 62.4778 59.1467 65.2778 57.56C68.1711 55.88 70.4111 53.64 71.9978 50.84C73.6778 47.9467 74.5178 44.8667 74.5178 41.6C74.5178 38.24 73.6778 35.16 71.9978 32.36C70.4111 29.4667 68.1711 27.18 65.2778 25.5C62.4778 23.82 59.3978 22.98 56.0378 22.98H53.9378V59.8C54.4045 59.8933 55.1045 59.94 56.0378 59.94ZM56.0378 104.88C59.3978 104.88 62.4778 104.087 65.2778 102.5C68.1711 100.82 70.4111 98.58 71.9978 95.78C73.6778 92.8867 74.5178 89.76 74.5178 86.4C74.5178 83.1333 73.6778 80.1 71.9978 77.3C70.4111 74.4067 68.1711 72.1667 65.2778 70.58C62.4778 68.9 59.3978 68.06 56.0378 68.06H53.9378V104.74C54.4045 104.833 55.1045 104.88 56.0378 104.88ZM132.604 15H181.744V104.6H234.944V113H132.604V15ZM287.538 113.7C275.031 113.7 263.738 111.787 253.658 107.96C243.578 104.133 235.598 98.4867 229.718 91.02C223.931 83.46 221.038 74.4067 221.038 63.86C221.038 53.4067 223.978 44.4467 229.858 36.98C235.738 29.5133 243.671 23.8667 253.658 20.04C263.738 16.12 275.031 14.16 287.538 14.16C299.951 14.16 311.151 16.12 321.138 20.04C331.218 23.8667 339.151 29.5133 344.938 36.98C350.818 44.4467 353.758 53.4067 353.758 63.86C353.758 74.4067 350.818 83.46 344.938 91.02C339.151 98.4867 331.218 104.133 321.138 107.96C311.151 111.787 299.951 113.7 287.538 113.7ZM287.538 105.44C291.458 105.44 294.351 103.667 296.218 100.12C297.804 97.4133 298.878 92.6067 299.438 85.7C299.718 82.06 299.858 74.78 299.858 63.86C299.858 52.8467 299.624 45.0533 299.158 40.48C298.878 34.88 297.851 30.6333 296.078 27.74C294.211 24.1933 291.364 22.42 287.538 22.42C283.618 22.42 280.678 24.1933 278.718 27.74C277.131 30.54 276.104 34.7867 275.638 40.48C275.264 45.3333 275.078 53.1267 275.078 63.86C275.078 75.9933 275.218 83.2733 275.498 85.7C275.871 92.14 276.898 96.9467 278.578 100.12C280.538 103.667 283.524 105.44 287.538 105.44ZM359.147 63.86C359.147 47.34 363.207 35.0667 371.327 27.04C376.553 21.8133 382.387 18.36 388.827 16.68C395.267 15 403.713 14.16 414.167 14.16C423.873 14.16 431.667 14.86 437.547 16.26C443.52 17.5667 448.42 20.4133 452.247 24.8C455.42 28.44 457.893 32.8733 459.667 38.1C461.533 43.2333 462.607 48.2733 462.887 53.22H454.907C454.533 49.02 453.507 44.7267 451.827 40.34C450.24 35.86 447.72 32.0333 444.267 28.86C440.813 25.5933 436.427 23.96 431.107 23.96C426.16 23.96 422.053 26.1533 418.787 30.54C415.987 34.3667 413.98 39.4533 412.767 45.8C411.647 51.4 411.087 57.42 411.087 63.86C411.087 74.4067 412.393 83.2267 415.007 90.32C418.46 99.3733 423.827 103.9 431.107 103.9V65.12H473.947V113C460.507 113 445.293 113.187 428.307 113.56L414.167 113.7C403.9 113.7 395.547 112.72 389.107 110.76C382.76 108.707 377.3 105.393 372.727 100.82C363.673 91.7667 359.147 79.4467 359.147 63.86ZM481.783 15H527.423V113H481.783V15ZM609.297 50.14C620.404 53.1267 628.71 57.0933 634.217 62.04C639.724 66.8933 642.477 73.24 642.477 81.08C642.477 87.3333 640.517 92.9333 636.597 97.88C632.677 102.827 626.89 106.7 619.237 109.5C611.677 112.3 602.484 113.7 591.657 113.7C578.87 113.7 567.577 112.067 557.777 108.8C548.07 105.44 540.464 101.38 534.957 96.62L539.577 90.32C544.43 94.1467 550.544 97.4133 557.917 100.12C565.29 102.827 573.224 104.18 581.717 104.18C587.224 104.18 591.377 103.387 594.177 101.8C597.07 100.213 598.517 97.9733 598.517 95.08C598.517 90.04 593.524 86.12 583.537 83.32L565.337 78C555.444 75.0133 547.79 70.86 542.377 65.54C537.057 60.22 534.397 53.92 534.397 46.64C534.397 40.5733 536.31 35.0667 540.137 30.12C543.964 25.1733 549.517 21.3 556.797 18.5C564.17 15.6067 572.99 14.16 583.257 14.16C593.057 14.16 602.064 15.28 610.277 17.52C618.584 19.76 625.35 22.4667 630.577 25.64L625.957 32.08C621.57 29.56 616.297 27.4133 610.137 25.64C604.07 23.8667 597.677 22.98 590.957 22.98C585.077 22.98 580.55 23.9133 577.377 25.78C574.297 27.5533 572.757 30.0267 572.757 33.2C572.757 35.6267 573.924 37.7733 576.257 39.64C578.59 41.4133 583.024 43.1867 589.557 44.96L609.297 50.14ZM672.526 23.26H635.706V15H758.486V23.26H721.526V113H672.526V23.26ZM772.05 15H812.93L856.33 113H803.41L788.71 80.52H757.91L745.31 113H735.09L772.05 15ZM784.79 71.98L772.05 43.56L760.99 71.98H784.79ZM861.861 15H903.021L943.901 64V15H952.301V113H919.401L870.401 47.76V113H861.861V15Z" fill="#003049"/>
</g>
<defs>
<clipPath id="clip0_135_18">
<rect width="959" height="154" fill="white"/>
</clipPath>
</defs>
</svg>
