<svg width="526" height="105" viewBox="0 0 526 105" fill="none" xmlns="http://www.w3.org/2000/svg">
<path d="M61.7088 78.7894C61.7088 81.4226 61.3462 83.8078 60.6211 85.9449C59.896 88.082 58.8847 89.971 57.5872 91.612C56.3279 93.253 54.8014 94.665 53.0077 95.8481C51.2522 97.0311 49.306 98.0042 47.1689 98.7675C45.0318 99.5307 42.742 100.103 40.2996 100.485C37.8954 100.828 35.2049 101 32.2282 101H12.5364C11.277 101 10.2085 100.637 9.33073 99.9124C8.49116 99.1491 8.07137 97.9279 8.07137 96.2488V31.6778C8.07137 29.9987 8.49116 28.7965 9.33073 28.0715C10.2085 27.3082 11.277 26.9266 12.5364 26.9266H31.1406C35.6819 26.9266 39.5173 27.3082 42.6466 28.0715C45.8141 28.8347 48.4664 29.9987 50.6035 31.5633C52.7787 33.0898 54.4388 35.0361 55.5837 37.4022C56.7286 39.7683 57.301 42.5541 57.301 45.7598C57.301 47.5534 57.072 49.2516 56.6141 50.8545C56.1561 52.4191 55.4883 53.8502 54.6105 55.1478C53.7328 56.4453 52.6452 57.5902 51.3476 58.5824C50.0883 59.5746 48.6381 60.376 46.9971 60.9866C49.0961 61.3682 51.0233 62.0361 52.7787 62.9901C54.5724 63.9442 56.118 65.1845 57.4155 66.711C58.7512 68.1993 59.8006 69.9548 60.5639 71.9774C61.3271 74 61.7088 76.2707 61.7088 78.7894ZM42.2459 47.5916C42.2459 46.1032 42.0169 44.7676 41.559 43.5845C41.101 42.4015 40.4141 41.4283 39.4982 40.6651C38.5823 39.8637 37.4183 39.2531 36.0063 38.8333C34.6325 38.4135 32.7816 38.2036 30.4537 38.2036H22.8403V57.4375H31.2551C33.4304 57.4375 35.1667 57.1894 36.4643 56.6933C37.7618 56.1591 38.8303 55.4531 39.6699 54.5753C40.5477 53.6594 41.1964 52.6099 41.6162 51.4269C42.036 50.2057 42.2459 48.9273 42.2459 47.5916ZM46.0812 79.3046C46.0812 77.5873 45.795 76.0608 45.2226 74.7251C44.6501 73.3513 43.8106 72.2064 42.7038 71.2905C41.5971 70.3746 40.1851 69.6686 38.4678 69.1725C36.7505 68.6764 34.518 68.4283 31.7703 68.4283H22.8403V89.494H33.7166C35.8155 89.494 37.571 89.2841 38.983 88.8643C40.4332 88.4064 41.6735 87.7576 42.7038 86.918C43.7724 86.0403 44.5929 84.9717 45.1653 83.7124C45.7759 82.4149 46.0812 80.9456 46.0812 79.3046ZM114.488 94.7032C114.488 95.8481 114.43 96.8212 114.316 97.6226C114.239 98.3859 114.106 99.0346 113.915 99.5689C113.724 100.065 113.476 100.428 113.171 100.657C112.904 100.886 112.579 101 112.198 101H78.2522C76.9928 101 75.9243 100.637 75.0466 99.9124C74.207 99.1491 73.7872 97.9279 73.7872 96.2488V28.9874C73.7872 28.6057 73.9017 28.2623 74.1307 27.957C74.3978 27.6517 74.8176 27.4036 75.39 27.2128C75.9625 27.022 76.7257 26.8693 77.6798 26.7549C78.672 26.6404 79.8932 26.5831 81.3434 26.5831C82.8317 26.5831 84.0529 26.6404 85.007 26.7549C85.961 26.8693 86.7243 27.022 87.2967 27.2128C87.8692 27.4036 88.2699 27.6517 88.4988 27.957C88.766 28.2623 88.8995 28.6057 88.8995 28.9874V88.5781H112.198C112.579 88.5781 112.904 88.6926 113.171 88.9216C113.476 89.1124 113.724 89.4558 113.915 89.952C114.106 90.4099 114.239 91.0396 114.316 91.841C114.43 92.6042 114.488 93.5583 114.488 94.7032ZM235.902 38.4326C235.902 39.5393 235.844 40.4934 235.73 41.2948C235.653 42.0962 235.52 42.7449 235.329 43.2411C235.176 43.699 234.967 44.0234 234.699 44.2142C234.47 44.405 234.184 44.5004 233.841 44.5004C233.345 44.5004 232.543 44.157 231.436 43.47C230.33 42.7831 228.861 42.0389 227.029 41.2375C225.197 40.4361 223.003 39.6919 220.446 39.005C217.927 38.3181 214.988 37.9746 211.63 37.9746C208.043 37.9746 204.799 38.6043 201.899 39.8637C198.998 41.0849 196.518 42.8403 194.457 45.1301C192.396 47.3817 190.813 50.1103 189.706 53.316C188.599 56.4834 188.046 59.9944 188.046 63.8488C188.046 68.0848 188.599 71.8248 189.706 75.0686C190.851 78.2742 192.434 80.9647 194.457 83.1399C196.48 85.3152 198.903 86.9562 201.727 88.0629C204.589 89.1696 207.738 89.723 211.172 89.723C212.851 89.723 214.511 89.5322 216.152 89.1505C217.793 88.7689 219.32 88.1965 220.732 87.4332V70.2601H206.707C206.02 70.2601 205.486 69.8403 205.104 69.0007C204.723 68.123 204.532 66.6537 204.532 64.593C204.532 63.5244 204.57 62.6276 204.646 61.9025C204.761 61.1774 204.914 60.605 205.104 60.1852C205.295 59.7273 205.524 59.4029 205.791 59.2121C206.058 58.9831 206.364 58.8686 206.707 58.8686H231.723C232.333 58.8686 232.868 58.9831 233.326 59.2121C233.822 59.4029 234.241 59.7082 234.585 60.128C234.967 60.5477 235.253 61.0629 235.444 61.6735C235.634 62.246 235.73 62.9138 235.73 63.6771V93.1576C235.73 94.3025 235.52 95.3138 235.1 96.1915C234.718 97.0311 233.898 97.6989 232.639 98.1951C231.417 98.6912 229.891 99.2064 228.059 99.7406C226.227 100.275 224.319 100.733 222.335 101.114C220.388 101.496 218.404 101.782 216.381 101.973C214.397 102.164 212.393 102.259 210.371 102.259C204.456 102.259 199.151 101.42 194.457 99.7406C189.801 98.0233 185.851 95.5618 182.608 92.3562C179.364 89.1124 176.883 85.1816 175.166 80.564C173.449 75.9082 172.59 70.6417 172.59 64.7647C172.59 58.6969 173.506 53.2587 175.338 48.4502C177.169 43.6036 179.764 39.5011 183.123 36.1428C186.481 32.7464 190.526 30.1513 195.258 28.3577C200.029 26.564 205.333 25.6672 211.172 25.6672C214.378 25.6672 217.297 25.8962 219.93 26.3541C222.564 26.7739 224.853 27.3082 226.8 27.957C228.784 28.5676 230.425 29.2354 231.723 29.9605C233.02 30.6856 233.917 31.3153 234.413 31.8495C234.947 32.3838 235.329 33.1471 235.558 34.1393C235.787 35.0934 235.902 36.5245 235.902 38.4326ZM266.355 98.9392C266.355 99.3208 266.222 99.6643 265.954 99.9696C265.726 100.275 265.325 100.523 264.752 100.714C264.18 100.905 263.417 101.057 262.463 101.172C261.509 101.286 260.287 101.343 258.799 101.343C257.349 101.343 256.128 101.286 255.135 101.172C254.181 101.057 253.418 100.905 252.846 100.714C252.273 100.523 251.853 100.275 251.586 99.9696C251.357 99.6643 251.243 99.3208 251.243 98.9392V28.9874C251.243 28.6057 251.357 28.2623 251.586 27.957C251.853 27.6517 252.273 27.4036 252.846 27.2128C253.456 27.022 254.239 26.8693 255.193 26.7549C256.147 26.6404 257.349 26.5831 258.799 26.5831C260.287 26.5831 261.509 26.6404 262.463 26.7549C263.417 26.8693 264.18 27.022 264.752 27.2128C265.325 27.4036 265.726 27.6517 265.954 27.957C266.222 28.2623 266.355 28.6057 266.355 28.9874V98.9392ZM326.404 78.7894C326.404 82.682 325.679 86.0975 324.229 89.0361C322.778 91.9746 320.813 94.436 318.333 96.4205C315.852 98.3668 312.952 99.836 309.631 100.828C306.311 101.82 302.762 102.317 298.984 102.317C296.427 102.317 294.042 102.107 291.829 101.687C289.653 101.267 287.726 100.771 286.047 100.199C284.368 99.588 282.956 98.9583 281.811 98.3095C280.704 97.6608 279.903 97.0883 279.407 96.5922C278.911 96.0961 278.548 95.3901 278.319 94.4742C278.128 93.5201 278.033 92.1654 278.033 90.4099C278.033 89.2269 278.071 88.2346 278.147 87.4332C278.224 86.6318 278.338 85.9831 278.491 85.4869C278.682 84.9908 278.911 84.6474 279.178 84.4566C279.483 84.2276 279.827 84.1131 280.208 84.1131C280.742 84.1131 281.487 84.4375 282.441 85.0862C283.433 85.6968 284.692 86.3838 286.219 87.147C287.745 87.9103 289.558 88.6163 291.657 89.265C293.794 89.8756 296.255 90.1809 299.041 90.1809C300.873 90.1809 302.514 89.971 303.964 89.5512C305.414 89.0933 306.636 88.4636 307.628 87.6622C308.658 86.8608 309.441 85.8686 309.975 84.6855C310.509 83.5025 310.776 82.1859 310.776 80.7357C310.776 79.0566 310.318 77.6255 309.402 76.4424C308.487 75.2212 307.284 74.1527 305.796 73.2368C304.346 72.2827 302.686 71.405 300.816 70.6036C298.946 69.764 297.019 68.8863 295.034 67.9704C293.05 67.0545 291.123 66.0241 289.253 64.8792C287.383 63.6962 285.704 62.3032 284.215 60.7004C282.765 59.0594 281.582 57.1322 280.666 54.9188C279.75 52.7054 279.292 50.0531 279.292 46.9619C279.292 43.4128 279.941 40.3025 281.239 37.6312C282.574 34.9216 284.349 32.6891 286.562 30.9336C288.814 29.14 291.447 27.8043 294.462 26.9266C297.515 26.0488 300.74 25.61 304.136 25.61C305.892 25.61 307.647 25.7435 309.402 26.0107C311.158 26.2778 312.799 26.6404 314.325 27.0983C315.852 27.5563 317.207 28.0715 318.39 28.6439C319.573 29.2163 320.355 29.6934 320.737 30.075C321.118 30.4566 321.366 30.781 321.481 31.0481C321.634 31.3153 321.748 31.6778 321.824 32.1358C321.939 32.5556 322.015 33.1089 322.053 33.7958C322.092 34.4446 322.111 35.2651 322.111 36.2573C322.111 37.364 322.072 38.299 321.996 39.0623C321.958 39.8255 321.863 40.4552 321.71 40.9513C321.595 41.4474 321.405 41.81 321.137 42.0389C320.908 42.2679 320.584 42.3824 320.164 42.3824C319.745 42.3824 319.077 42.1153 318.161 41.581C317.245 41.0467 316.119 40.4743 314.783 39.8637C313.448 39.2149 311.902 38.6425 310.147 38.1464C308.391 37.6121 306.464 37.3449 304.365 37.3449C302.724 37.3449 301.293 37.5548 300.072 37.9746C298.851 38.3563 297.82 38.9096 296.981 39.6347C296.179 40.3216 295.569 41.1612 295.149 42.1534C294.767 43.1456 294.576 44.1951 294.576 45.3018C294.576 46.9428 295.015 48.3739 295.893 49.5951C296.809 50.7781 298.011 51.8467 299.499 52.8008C301.026 53.7167 302.743 54.5944 304.651 55.434C306.559 56.2354 308.506 57.094 310.49 58.0099C312.475 58.9258 314.421 59.9753 316.329 61.1583C318.237 62.3032 319.935 63.6962 321.424 65.3371C322.912 66.94 324.114 68.8481 325.03 71.0615C325.946 73.2368 326.404 75.8127 326.404 78.7894ZM386.052 33.1089C386.052 34.2156 385.995 35.1697 385.88 35.9711C385.804 36.7343 385.67 37.364 385.479 37.8601C385.289 38.3181 385.041 38.6616 384.735 38.8905C384.468 39.1195 384.163 39.234 383.819 39.234H365.272V98.9392C365.272 99.3208 365.139 99.6643 364.872 99.9696C364.643 100.275 364.242 100.523 363.67 100.714C363.097 100.905 362.315 101.057 361.323 101.172C360.369 101.286 359.166 101.343 357.716 101.343C356.266 101.343 355.045 101.286 354.053 101.172C353.099 101.057 352.335 100.905 351.763 100.714C351.19 100.523 350.771 100.275 350.504 99.9696C350.275 99.6643 350.16 99.3208 350.16 98.9392V39.234H331.613C331.231 39.234 330.907 39.1195 330.64 38.8905C330.373 38.6616 330.144 38.3181 329.953 37.8601C329.762 37.364 329.61 36.7343 329.495 35.9711C329.419 35.1697 329.381 34.2156 329.381 33.1089C329.381 31.964 329.419 30.9909 329.495 30.1895C329.61 29.3881 329.762 28.7584 329.953 28.3004C330.144 27.8043 330.373 27.4609 330.64 27.27C330.907 27.0411 331.231 26.9266 331.613 26.9266H383.819C384.163 26.9266 384.468 27.0411 384.735 27.27C385.041 27.4609 385.289 27.8043 385.479 28.3004C385.67 28.7584 385.804 29.3881 385.88 30.1895C385.995 30.9909 386.052 31.964 386.052 33.1089ZM446.215 95.3901C446.673 96.764 446.959 97.8516 447.074 98.653C447.188 99.4544 447.036 100.065 446.616 100.485C446.196 100.866 445.452 101.095 444.383 101.172C443.315 101.286 441.845 101.343 439.975 101.343C438.029 101.343 436.503 101.305 435.396 101.229C434.327 101.191 433.507 101.095 432.934 100.943C432.362 100.752 431.961 100.504 431.732 100.199C431.503 99.8933 431.313 99.4926 431.16 98.9965L426.18 84.1131H398.359L393.665 98.5958C393.513 99.13 393.303 99.588 393.036 99.9696C392.807 100.313 392.406 100.599 391.833 100.828C391.299 101.019 390.517 101.153 389.486 101.229C388.494 101.305 387.178 101.343 385.537 101.343C383.781 101.343 382.407 101.286 381.415 101.172C380.423 101.057 379.736 100.79 379.354 100.37C378.973 99.9124 378.839 99.2827 378.954 98.4813C379.068 97.6799 379.354 96.6113 379.812 95.2756L402.653 29.5598C402.882 28.911 403.149 28.3958 403.454 28.0142C403.759 27.5944 404.236 27.2891 404.885 27.0983C405.572 26.8693 406.507 26.7358 407.69 26.6976C408.873 26.6213 410.438 26.5831 412.384 26.5831C414.636 26.5831 416.429 26.6213 417.765 26.6976C419.101 26.7358 420.131 26.8693 420.856 27.0983C421.619 27.2891 422.154 27.5944 422.459 28.0142C422.802 28.434 423.089 29.0064 423.318 29.7315L446.215 95.3901ZM412.212 41.0658H412.155L401.679 72.5499H422.688L412.212 41.0658ZM517.712 95.7336C517.712 96.6113 517.56 97.3936 517.255 98.0806C516.949 98.7675 516.529 99.3399 515.995 99.7979C515.499 100.256 514.888 100.599 514.163 100.828C513.476 101.019 512.77 101.114 512.045 101.114H505.634C504.298 101.114 503.134 100.981 502.142 100.714C501.188 100.447 500.291 99.9696 499.452 99.2827C498.65 98.5576 497.868 97.6035 497.105 96.4205C496.341 95.1993 495.483 93.6346 494.529 91.7265L476.096 57.094C475.028 55.0333 473.94 52.8198 472.833 50.4538C471.727 48.0495 470.734 45.7216 469.857 43.47H469.742C469.895 46.2177 470.009 48.9654 470.086 51.7131C470.162 54.4227 470.2 57.2276 470.2 60.128V98.882C470.2 99.2636 470.086 99.6071 469.857 99.9124C469.666 100.218 469.303 100.485 468.769 100.714C468.273 100.905 467.586 101.057 466.708 101.172C465.831 101.286 464.705 101.343 463.331 101.343C461.995 101.343 460.889 101.286 460.011 101.172C459.133 101.057 458.446 100.905 457.95 100.714C457.454 100.485 457.11 100.218 456.92 99.9124C456.729 99.6071 456.633 99.2636 456.633 98.882V32.3075C456.633 30.5139 457.149 29.1782 458.179 28.3004C459.248 27.3845 460.545 26.9266 462.072 26.9266H470.143C471.593 26.9266 472.814 27.0602 473.807 27.3273C474.799 27.5563 475.677 27.957 476.44 28.5294C477.241 29.1018 477.985 29.9033 478.672 30.9336C479.359 31.9259 480.065 33.1662 480.79 34.6545L495.216 61.7308C496.055 63.3718 496.876 64.9937 497.677 66.5965C498.517 68.1612 499.318 69.7449 500.081 71.3477C500.845 72.9124 501.589 74.458 502.314 75.9845C503.039 77.511 503.745 79.0375 504.432 80.564H504.489C504.375 77.8926 504.279 75.1067 504.203 72.2064C504.165 69.306 504.146 66.5393 504.146 63.906V29.1591C504.146 28.7775 504.26 28.434 504.489 28.1287C504.718 27.8234 505.1 27.5563 505.634 27.3273C506.168 27.0983 506.874 26.9457 507.752 26.8693C508.63 26.7549 509.756 26.6976 511.129 26.6976C512.427 26.6976 513.515 26.7549 514.392 26.8693C515.27 26.9457 515.938 27.0983 516.396 27.3273C516.892 27.5563 517.235 27.8234 517.426 28.1287C517.617 28.434 517.712 28.7775 517.712 29.1591V95.7336Z" fill="#0E2748"/>
<path d="M139.5 95.1004C156.4 95.1004 170.1 81.4003 170.1 64.5004C170.1 47.6005 156.4 33.9004 139.5 33.9004C122.6 33.9004 108.9 47.6005 108.9 64.5004C108.9 81.4003 122.6 95.1004 139.5 95.1004Z" fill="#C12926"/>
<path d="M128.25 93.3002C143.907 93.3002 156.6 80.406 156.6 64.5002C156.6 48.5944 143.907 35.7002 128.25 35.7002C112.593 35.7002 99.8999 48.5944 99.8999 64.5002C99.8999 80.406 112.593 93.3002 128.25 93.3002Z" fill="#F04F35"/>
<path d="M176.78 48.6767C174.657 43.8117 171.728 39.4954 168.081 35.846C164.418 32.1909 160.085 29.2711 155.2 27.168C147.023 23.6535 137.266 23.052 128.611 25.4194C125.152 26.3755 121.894 27.7477 118.924 29.5025C115.942 31.2616 113.197 33.397 110.763 35.8466C108.338 38.2924 106.221 41.0437 104.482 44.0263C102.742 46.9966 101.378 50.2417 100.432 53.6641C99.4805 57.0947 99 60.718 99 64.4334C99 68.1488 99.4799 71.7815 100.432 75.2257C101.378 78.6712 102.742 81.9281 104.479 84.9002C106.21 87.8717 108.329 90.6354 110.761 93.1036C113.205 95.588 115.95 97.7247 118.931 99.4608C121.912 101.199 125.168 102.568 128.598 103.533C132.057 104.505 135.692 105 139.411 105C143.124 105 146.757 104.505 150.217 103.533C153.653 102.567 156.903 101.198 159.89 99.4608C162.862 97.7297 165.632 95.5961 168.106 93.1142C170.586 90.6385 172.726 87.8729 174.454 84.9015C176.199 81.92 177.565 78.6699 178.529 75.2369C179.506 71.7803 180 68.1482 180 64.4347C180.001 58.865 178.921 53.5615 176.78 48.6767ZM169.1 64.4371C169.1 68.5631 168.322 72.4726 166.786 76.0474C165.243 79.6347 163.114 82.799 160.449 85.4675C157.787 88.1261 154.617 90.2578 151.027 91.7986C143.843 94.8783 134.973 94.854 127.852 91.7986C124.262 90.2559 121.108 88.1273 118.465 85.47C115.815 82.8021 113.69 79.6322 112.153 76.0487C110.619 72.4745 109.841 68.565 109.841 64.4384C109.841 60.3498 110.619 56.4751 112.153 52.9214C113.69 49.3572 115.815 46.1985 118.465 43.5262C121.109 40.8633 124.271 38.7347 127.852 37.197C131.43 35.6631 135.335 34.8855 139.47 34.8855C143.558 34.8855 147.444 35.6631 151.027 37.1945C154.611 38.7359 157.778 40.8652 160.449 43.53C163.112 46.1941 165.243 49.3541 166.786 52.9214C168.318 56.4739 169.1 60.3485 169.1 64.4371Z" fill="#0E2748"/>
<path d="M124.364 78.4371C121.804 74.2576 120.447 69.4507 120.447 64.5305C120.444 61.1931 121.052 57.9366 122.262 54.8475C122.762 53.5672 124.212 52.9417 125.481 53.4347C126.765 53.9357 127.397 55.3785 126.894 56.6613C125.918 59.1684 125.42 61.8118 125.424 64.5261C125.424 68.5307 126.525 72.4401 128.607 75.8317C129.324 77.0068 128.958 78.5361 127.789 79.2537C127.381 79.5039 126.934 79.6241 126.49 79.6241C125.653 79.6241 124.834 79.2015 124.364 78.4371ZM130.5 46.8065C129.67 45.713 129.884 44.1526 130.979 43.3216C131.948 42.5891 132.974 41.915 134.032 41.3181C135.229 40.6452 136.744 41.0722 137.418 42.2635C138.093 43.4629 137.672 44.9791 136.472 45.6532C135.609 46.1387 134.774 46.6902 133.984 47.2871C133.536 47.6288 133.007 47.79 132.486 47.79C131.731 47.79 130.987 47.4545 130.5 46.8065Z" fill="white"/>
</svg>
